# xmcd
#
# Track frame offsets:
#	150
#	24188
#	40321
#	59316
#	76736
#	91975
#	107218
#	126013
#	146922
#	161064
#
# Disc length: 2362 seconds
#
# Revision: 0
# Processed by: cddbd v1.5.2PL0 Copyright (c) Steve Scherf et al.
# Submitted via: audiograbber 1.83.01
#
DISCID=7d09380a
DTITLE=Shelby Lynne - Just A Little Lovin'
DYEAR=2008
DGENRE=Country
TTITLE0=Just A Little Lovin'
TTITLE1=Anyone Who Had A Heart
TTITLE2=You Don't Have To Say You Love Me
TTITLE3=I Only Want To Be With You
TTITLE4=The Look Of Love
TTITLE5=Breakfast In Bed
TTITLE6=Willie And Laura Mae Jones
TTITLE7=I Don't Want To Hear It Anymore
TTITLE8=Pretend
TTITLE9=How Can I Be Sure
EXTD=
EXTT0=
EXTT1=
EXTT2=
EXTT3=
EXTT4=
EXTT5=
EXTT6=
EXTT7=
EXTT8=
EXTT9=
PLAYORDER=
